<svg width="31" height="30" viewBox="0 0 31 30" fill="none" xmlns="http://www.w3.org/2000/svg">
<path d="M7.74996 10C9.17079 10 10.3333 8.875 10.3333 7.5C10.3333 6.125 9.17079 5 7.74996 5C6.32913 5 5.16663 6.125 5.16663 7.5C5.16663 8.875 6.32913 10 7.74996 10ZM15.5 25C16.9208 25 18.0833 23.875 18.0833 22.5C18.0833 21.125 16.9208 20 15.5 20C14.0791 20 12.9166 21.125 12.9166 22.5C12.9166 23.875 14.0791 25 15.5 25ZM7.74996 25C9.17079 25 10.3333 23.875 10.3333 22.5C10.3333 21.125 9.17079 20 7.74996 20C6.32913 20 5.16663 21.125 5.16663 22.5C5.16663 23.875 6.32913 25 7.74996 25ZM7.74996 17.5C9.17079 17.5 10.3333 16.375 10.3333 15C10.3333 13.625 9.17079 12.5 7.74996 12.5C6.32913 12.5 5.16663 13.625 5.16663 15C5.16663 16.375 6.32913 17.5 7.74996 17.5ZM15.5 17.5C16.9208 17.5 18.0833 16.375 18.0833 15C18.0833 13.625 16.9208 12.5 15.5 12.5C14.0791 12.5 12.9166 13.625 12.9166 15C12.9166 16.375 14.0791 17.5 15.5 17.5ZM20.6666 7.5C20.6666 8.875 21.8291 10 23.25 10C24.6708 10 25.8333 8.875 25.8333 7.5C25.8333 6.125 24.6708 5 23.25 5C21.8291 5 20.6666 6.125 20.6666 7.5ZM15.5 10C16.9208 10 18.0833 8.875 18.0833 7.5C18.0833 6.125 16.9208 5 15.5 5C14.0791 5 12.9166 6.125 12.9166 7.5C12.9166 8.875 14.0791 10 15.5 10ZM23.25 17.5C24.6708 17.5 25.8333 16.375 25.8333 15C25.8333 13.625 24.6708 12.5 23.25 12.5C21.8291 12.5 20.6666 13.625 20.6666 15C20.6666 16.375 21.8291 17.5 23.25 17.5ZM23.25 25C24.6708 25 25.8333 23.875 25.8333 22.5C25.8333 21.125 24.6708 20 23.25 20C21.8291 20 20.6666 21.125 20.6666 22.5C20.6666 23.875 21.8291 25 23.25 25Z" fill="black"/>
</svg>
